<svg xmlns="http://www.w3.org/2000/svg" width="933.333" height="933.333" preserveAspectRatio="xMidYMid meet" version="1.0" viewBox="0 0 700 700"><metadata>Created by potrace 1.14, written by Peter Selinger 2001-2017</metadata><g fill="#000" stroke="none"><path d="M2439 6996 c-2 -2 -38 -6 -79 -10 -41 -3 -84 -8 -95 -10 -11 -2 -42 -7 -70 -11 -376 -54 -815 -241 -1140 -485 -518 -391 -863 -927 -995 -1550 -59 -273 -59 -273 -56 -1470 1 -602 5 -1104 8 -1115 3 -11 9 -47 13 -80 6 -51 46 -257 60 -307 3 -10 7 -26 9 -35 40 -168 203 -545 288 -667 4 -6 35 -51 67 -101 207 -311 515 -601 844 -794 98 -57 291 -152 352 -172 22 -7 45 -16 50 -20 21 -14 276 -90 350 -105 11 -2 43 -8 70 -14 78 -16 87 -18 150 -25 33 -4 69 -10 80 -13 33 -10 2205 -11 2270 -2 33 5 89 12 124 15 36 4 68 8 72 11 4 2 22 6 40 8 191 26 525 139 729 248 94 49 251 142 280 165 8 6 47 35 85 64 416 308 718 717 902 1219 19 52 37 102 39 110 24 94 64 256 68 282 3 18 7 42 10 53 6 32 16 111 26 209 10 95 7 2222 -3 2266 -3 14 -8 50 -12 80 -8 73 -50 267 -75 355 -11 39 -22 77 -24 85 -13 52 -87 233 -137 337 -185 386 -464 721 -817 981 -149 110 -312 202 -544 306 -135 60 -468 150 -638 171 -30 4 -68 9 -85 12 -33 7 -2209 15 -2216 9z" transform="translate(0.000000,700.000000) scale(0.100000,-0.100000)"/></g></svg>